<?xml version="1.0" encoding="utf-8"?>
<!-- Generator: Adobe Illustrator 27.5.0, SVG Export Plug-In . SVG Version: 6.00 Build 0)  -->
<svg version="1.1" xmlns="http://www.w3.org/2000/svg" xmlns:xlink="http://www.w3.org/1999/xlink" x="0px" y="0px"
	 viewBox="0 0 1502 1122" style="enable-background:new 0 0 1502 1122;" xml:space="preserve">
<g id="background">
	<rect style="fill:#FFFFFF;" width="1502" height="1122"/>
</g>
<g id="shadow">
	<path style="opacity:0.12;fill:#606060;" d="M1367.684,957.31c-95.104-52.259-427.968-20.903-427.968-20.903
		c-23.751,3.2-44.235,6.367-61.767,9.491c-0.004,0-96.345,15.332-142.707,8.799c-37.103-5.228-138.911-12.125-192.726,1.397
		c-17.943-4.251-42.788-8.631-75.92-13.095c0,0-254.782-24-327.576,16c-72.795,40,158.329,48,224.754,51
		c31.769,1.435,121.19-5.137,174.993-16.541c41.941,8.034,118.414,6.771,159.621,1.739c64.18-7.837,96.407,0.418,168.823,11.308
		c70.582,12.299,169.382,19.126,206.839,17.435C1160.832,1020.021,1462.788,1009.569,1367.684,957.31z"/>
</g>
<g id="object">
	<g>
		<polygon style="fill:#AEC4C4;" points="1225.1,375.854 1206,376 1139,474 1095,427 1077,440 1120,510 1151,521 1178,487 		"/>
		<g>
			<g>
				<polygon style="fill:#59595B;" points="1169.111,613.467 1138.671,777.973 1140.481,957.192 1169.839,959.446 1198.969,791.048 
					1260.931,613.335 				"/>
			</g>
			<g>
				<polygon style="fill:#59595B;" points="1205.584,583.056 1233.877,768.059 1276.501,959.942 1304.009,959.294 1300.887,765.875 
					1316.822,588.303 				"/>
			</g>
			<g>
				<g>
					<path style="fill:#AEC4C4;" d="M1348.223,639.986c0.802,17.178,0.948,40.354-4.92,41.361c-1.1,0.189-2.175-0.394-3.156-0.958
						c-10.357-5.957-17.803-14.536-28.008-20.286c-10.697-6.027-22.829-9.055-34.701-11.083c-17.756-3.137-35.865-4.89-53.865-4.754
						c-14.151,0.107-28.324,1.843-42.372,3.538c-11.687,1.411-22.484,5.599-34.446,4.995c-12.26-0.619-24.425-4.492-35.078-11.411
						c-0.39-0.253-0.804-0.542-0.975-1.009c-0.188-0.511-0.034-1.088,0.12-1.61c2.29-7.742,3.88-15.391,8.246-21.869
						c4.875-7.235,8.231-16.35,11.675-24.528c7.177-17.044,13.888-34.885,18.736-52.966c7.401-24.599,15.967-48.597,23.097-73.27
						c4.942-17.101,9.401-34.492,16.295-50.765c5.398-12.741,15.128-31.405,27.299-37.281c4.12-1.989,8.716-2.283,13.204-2.549
						c13.614-0.808,27.229-1.617,40.843-2.425c4.963-0.295,10.127-0.552,14.718,1.619c6.879,3.253,10.932,11.136,14.487,18.497
						c15.943,33.006,26.507,68.771,32.885,105.777c3.329,19.322,6.451,38.688,8.998,58.143c2.843,21.71,4.983,43.537,5.904,65.433
						C1347.313,625.016,1347.842,631.824,1348.223,639.986z"/>
				</g>
			</g>
			<g>
				<g>
					<path style="fill:#FFFFFF;" d="M1252.057,449.036c-0.303,7.735,1.007,15.432,2.314,23.066
						c7.955,46.488,26.658,132.668,34.614,179.156c-36.597,0.674-91.172-0.28-127.769,0.394c0.85-17.522,8.933-73.107,9.784-90.629
						c0.545-11.233,1.095-22.505,3.163-33.57c3.336-17.848,10.541-34.758,17.696-51.508c13.221-30.949,26.442-61.899,39.663-92.848
						c0.707-1.655,1.453-3.365,2.806-4.58c1.62-1.454,3.871-1.988,6.026-2.423c10.411-2.101,22.178-3.958,32.731-2.701
						c2.887,9.497-6.89,8.302-10.241,17.3C1257.967,403.787,1252.611,434.905,1252.057,449.036z"/>
				</g>
			</g>
			<g>
				<polygon style="fill:#3A3029;" points="1144.087,957.106 1123.945,965.238 1124.913,976.714 1166.647,977.667 1168.269,959.37 
									"/>
			</g>
			<g>
				<polygon style="fill:#3A3029;" points="1279.493,955.935 1258.18,970.164 1262.791,983.502 1305.344,975.551 1303.468,958.745 
									"/>
			</g>
			<g>
				<path style="fill:#3A3029;" d="M1225.2,316.599c0.404,11.597,2.764,15.751,8.069,27.022c3.065-9.517,6-19.387,9.065-28.903
					c-3.709-0.097-7.419-0.194-11.128-0.29C1228.953,314.368,1226.212,314.584,1225.2,316.599z"/>
				<g>
					<g>
						<path style="fill:#EACDB0;" d="M1232.355,344.177c2.17-9.956,1.267-25.577,10.257-31.927c9.953-7.03,23.83-4.782,34.844,0.431
							c8.772,4.152,17.446,11.104,18.618,20.738c1.132,9.303-5.013,17.756-10.826,25.108c-2.729,3.451-5.332,9.03-9.309,11.031
							c-5.503,2.769-13.178,0.991-13.178,0.991l0,0c-2.023-0.468-3.991,0.968-4.161,3.038l-0.465,5.643c0,0,0.154,4.264-6.107,3.673
							l0,0c-4.412-1.725-8.825-3.449-13.237-5.173c0.079-4.703,3.236-9.718,0.846-13.769c-1.355-2.298-4.098-3.378-5.873-5.369
							C1230.418,354.844,1231.286,349.086,1232.355,344.177z"/>
					</g>
					<g>
						<g>
							<path style="fill:#3A3029;" d="M1222.779,287.195c2.058-6.452,4.116-12.904,6.175-19.355
								c0.764-2.396,1.575-4.875,3.277-6.726c2.83-3.08,17.079-2.929,21.214-2.297s8.04,2.312,12.141,3.14
								c4.376,0.884,9.038,0.82,13.039,2.802c7.608,3.769,10.368,13.589,17.495,18.202c9.869,6.387,21.768,5.83,22.659,21.158
								c0.164,2.816-0.677,5.604-0.682,8.425c-0.006,3.644,1.373,7.13,2.075,10.705c3.089,15.723-7.68,32.757-22.355,38.444
								c-7.115,2.757-11.105,6.331-18.602,4.912c5.908-4.953,12.932-31.976,5.659-38.569c-1.927-1.745-9.927-1.979-12.589-2.718
								c-5.896-1.637-11.673-3.127-17.837-3.271c-9.148-0.214-18.546-1.651-27.192-4.724c-1.106-0.393-1.753-1.449-2.817-1.945
								c-6.182-2.885-7.888-2.028-9.371-4.014C1210.007,304.581,1220.209,295.251,1222.779,287.195z"/>
						</g>
					</g>
				</g>
			</g>
		</g>
		<g>
			<g>
				<path style="fill:#9E6652;" d="M269.249,297.353c-0.343,0.055-0.688,0.092-1.03,0.159l0.935-0.219
					c-0.163-0.989-0.274-1.986-0.346-2.986c0,0,0-0.001,0-0.001h0c-0.555-7.781,1.646-15.751,6.192-22.098
					c9.374,0.173,18.535,5.135,23.801,12.892c2.202,3.244,3.688,6.942,4.443,10.786l0.008,0.002c0,0,0.009,0.058,0.022,0.142
					c0.065,0.342,0.122,0.686,0.176,1.03c1.011,5.536,6.348,29.703,25.03,47.766c21.226,20.522,18.791,31.756,18.791,31.756
					s-20.113,18.016-36.578,21.188C294.634,400.864,275.335,337.901,269.249,297.353z"/>
			</g>
			<polygon style="fill:#F2D263;" points="251.31,374.041 235.321,395.706 209.876,500.861 148.699,623.911 172.623,637.089 
				252.565,528.765 283.132,399.972 			"/>
			<polygon style="fill:#F2D263;" points="348.254,359.304 408.027,331.051 377,211 401.573,205.055 457,323 452,353 369,411 
				328,360 			"/>
			<polygon style="fill:#605A52;" points="415.485,625.559 412.483,757.968 386.729,959.483 357.578,958.927 353.299,795.286 
				309.329,605.852 			"/>
			<polygon style="fill:#605A52;" points="366.451,600.421 326.463,781.382 271.869,968.209 244.916,963.186 260.394,774.866 
				256.196,598.372 			"/>
			<polygon style="fill:#3A3029;" points="383.183,959.057 402.267,968.977 400.228,980.199 359,977.189 359.132,959 			"/>
			<polygon style="fill:#3A3029;" points="271.281,963.05 290.916,978.667 285.332,991.304 244.465,980.083 247.663,963.84 			"/>
			<g>
				<path style="fill:#F2D263;" d="M247.457,695.347c0.89,11.808-2.751,44.328,12.274,48.76
					c18.196,5.368,27.15-10.398,37.801-21.311c8.316-8.522,19.165-14.026,29.803-19.378c29.181-14.681,52.966-19.915,85.335-19.167
					c14.519,0.335,69.357,4.039,67.777-19.548c-1.217-18.158-18.194-37.769-25.817-53.79c-9.4-19.757-18.451-40.537-25.706-61.838
					c-10.66-28.88-22.383-56.888-32.787-85.89c-7.211-20.102-13.988-40.613-23.003-59.472
					c-7.059-14.766-19.191-36.171-31.962-41.789c-4.322-1.901-8.88-1.692-13.327-1.462c-13.491,0.696-26.982,1.392-40.472,2.089
					c-4.918,0.254-10.028,0.577-14.241,3.771c-6.313,4.786-9.21,14.832-11.691,24.183c-11.124,41.933-16.581,86.545-17.754,132.145
					c-0.612,23.809-1.012,47.646-0.837,71.519c0.195,26.641,1.097,53.338,3.208,79.967
					C246.289,677.094,246.707,685.404,247.457,695.347z"/>
			</g>
			<path style="fill:#FFFFE3;" d="M282.982,362.869c0,0,5.032,36.193,29.129,42.202c24.097,6.009,36.293-18.021,15.765-44.707
				L282.982,362.869z"/>
			<path style="fill:#EACDB0;" d="M396.521,206.277l11.804-12.299L402,162l-18,3v22l-6,7l3,16
				C381,210,396.042,206.554,396.521,206.277z"/>
			<polygon style="fill:#EACDB0;" points="151.842,625.642 137.513,648.013 152.757,668.448 163.34,662.364 168.208,634.657 			"/>
			<g>
				<g>
					<g>
						<path style="fill:#EACDB0;" d="M297.486,296.548c-21.05-27.779-56.729-3.437-55.377,26.858
							c0.769,17.228,17.253,33.964,34.639,37.576c1.618,2.581,5.693,9.896,8.67,10.679c3.225,0.849,9.375-4.544,11.83-6.566
							c0.681-0.561,1.375-1.181,1.655-2.017c0.35-1.047-0.464-2.979-1.482-5.062c1.968-1.151,3.857-2.585,5.634-4.337
							c7.457-7.355,9.81-18.812,8.01-29.13C309.265,314.231,303.812,304.895,297.486,296.548z"/>
					</g>
				</g>
				<path style="fill:#9E6652;" d="M217,356c-5-31,3.267-51.767,3.279-51.77c5.164-14.304,16.962-26.368,30.595-32.743
					c7.305-3.415,14.377-3.421,21.969-0.14c4.934,2.132,9.289,6.168,10.64,11.37c1.221,4.704,0.104,9.783-1.854,14.231
					c-5.65,12.831-13.093,20.441-14.126,32.079c-1.033,11.638,7.37,25.985,13.064,36.188c1.986,3.558,29.805,55.432,34.248,52.023
					c-6.464,4.958-13.355,9.354-20.564,13.145c-11.904,6.259-27.048,9.512-40.251,4.539C241.048,430.044,232.271,418.514,221,411
					C209,403,222,387,217,356z"/>
			</g>
		</g>
		<g>
			<g>
				<path style="fill:#9D3C62;" d="M1187.967,218.217c7.021,3.235,11.593,13.102,12.546,27.071
					c0.566,8.294-0.178,17.43-2.211,27.152c-2.161,10.337-5.677,20.798-10.451,31.091c-4.773,10.293-10.489,19.74-16.988,28.079
					c-6.113,7.843-12.612,14.326-19.316,19.27c-11.292,8.327-21.794,11.247-28.814,8.012s-11.593-13.102-12.546-27.071
					c-0.566-8.294,0.178-17.429,2.211-27.152c2.161-10.338,5.677-20.798,10.451-31.091c4.773-10.293,10.489-19.741,16.988-28.079
					c6.113-7.843,12.612-14.326,19.316-19.27C1170.444,217.902,1180.947,214.982,1187.967,218.217z M1194.211,204.752
					c-25.417-11.713-63.42,16.312-84.882,62.595c-21.462,46.283-18.257,93.298,7.16,105.01
					c25.417,11.712,63.42-16.312,84.882-62.595C1222.834,263.479,1219.628,216.465,1194.211,204.752L1194.211,204.752z"/>
				<path style="fill:#9D3C62;" d="M1034.102,559.302l-7.086-3.265c-1.778-0.819-2.553-2.921-1.731-4.693l86.392-186.302
					c0.821-1.77,2.925-2.542,4.701-1.723l7.086,3.265c1.778,0.819,2.553,2.921,1.731,4.693l-86.392,186.302
					C1037.982,559.349,1035.878,560.12,1034.102,559.302z"/>
			</g>
			<path style="fill:#FAB4C6;" d="M1185.336,217.33c-2.086-0.723-24.523-1.04-32.157-2.334
				c-33.546-5.688-50.078-25.298-55.909-57.131c-2.661-14.527-9.227-28.332-18.508-39.793
				c-18.865-23.296-49.267-35.869-78.604-26.36c-10.018,3.247-19.909,10.24-27.09,18.971c-7.237,8.799-11.722,19.363-10.804,29.64
				c-5.712-6.584-15.199-10.087-25.651-11.189c-14.196-1.498-30.176,1.441-40.92,7.175c-49.229,26.269-40.179,95.673-0.761,128.182
				c21.216,17.497,46.334,30.004,72.128,39.858c4.144,1.583,9.44,3.397,15.291,5.294c15.658,5.076,35.299,10.743,47.559,14.169
				c3.819,0.919,7.796,1.83,11.924,2.72c9.284,2.004,19.331,3.908,30.091,5.595c6.643,1.177,13.233,3.227,19.506,5.664
				c5.579,2.167,11.031,4.789,15.984,8.162c2.542,1.731,5.409,3.705,7.357,6.116c3.351,4.147,6.686,7.366,12.21,7.979
				c5.377,0.596,10.842-0.219,15.931-1.987c21.752-7.558,44.412-53.18,44.939-54.528
				C1187.854,303.526,1221.072,229.713,1185.336,217.33z"/>
			<path style="fill:#BD7E97;" d="M1150.119,214.428c-3.823,2.832-7.614,6.114-11.318,9.802c-0.001,0.001-0.002,0.003-0.004,0.004
				c-0.926,0.922-1.845,1.869-2.759,2.841c-0.001,0.001-0.002,0.002-0.003,0.004c-0.914,0.972-1.821,1.968-2.721,2.989
				c-0.002,0.002-0.003,0.004-0.005,0.006c-0.898,1.019-1.79,2.063-2.673,3.129c-0.005,0.007-0.011,0.013-0.016,0.02
				c-0.88,1.063-1.751,2.149-2.614,3.257c-0.008,0.01-0.015,0.02-0.023,0.03c-0.861,1.107-1.713,2.236-2.556,3.388
				c-0.007,0.01-0.015,0.02-0.022,0.031c-0.842,1.151-1.674,2.324-2.496,3.518c-0.009,0.013-0.017,0.025-0.025,0.038
				c-0.82,1.193-1.63,2.407-2.428,3.641c-0.01,0.015-0.019,0.03-0.029,0.045c-0.798,1.234-1.584,2.489-2.358,3.764
				c-0.007,0.012-0.015,0.024-0.022,0.037c-0.775,1.278-1.538,2.575-2.288,3.892c-0.007,0.012-0.014,0.024-0.021,0.037
				c-0.75,1.318-1.487,2.655-2.209,4.01c-0.006,0.011-0.011,0.023-0.017,0.033c-0.724,1.358-1.433,2.734-2.128,4.129
				c-0.004,0.008-0.008,0.016-0.012,0.024c-0.697,1.399-1.378,2.817-2.044,4.252c-0.716,1.543-1.4,3.087-2.061,4.631
				c-0.218,0.508-0.419,1.016-0.631,1.525c-0.432,1.036-0.86,2.072-1.268,3.107c-0.237,0.602-0.46,1.203-0.689,1.805
				c-0.358,0.943-0.713,1.886-1.051,2.826c-0.227,0.631-0.444,1.26-0.661,1.89c-0.315,0.913-0.623,1.826-0.919,2.736
				c-0.207,0.636-0.409,1.27-0.606,1.904c-0.283,0.908-0.554,1.813-0.817,2.717c-0.181,0.622-0.363,1.245-0.536,1.866
				c-0.258,0.929-0.5,1.854-0.738,2.777c-0.15,0.583-0.306,1.169-0.448,1.75c-0.248,1.014-0.475,2.021-0.698,3.028
				c-0.107,0.481-0.223,0.965-0.325,1.445c-0.626,2.963-1.145,5.89-1.557,8.77c-0.067,0.469-0.119,0.931-0.18,1.397
				c-0.128,0.968-0.252,1.934-0.355,2.891c-0.059,0.546-0.105,1.085-0.156,1.627c-0.082,0.867-0.159,1.731-0.221,2.587
				c-0.041,0.565-0.073,1.125-0.105,1.685c-0.047,0.823-0.086,1.642-0.115,2.454c-0.019,0.561-0.034,1.119-0.045,1.674
				c-0.015,0.803-0.019,1.6-0.015,2.391c0.002,0.539,0.005,1.08,0.016,1.614c0.017,0.807,0.05,1.604,0.086,2.398
				c0.023,0.497,0.041,0.997,0.072,1.487c0.054,0.864,0.129,1.711,0.207,2.557c0.037,0.401,0.065,0.809,0.107,1.206
				c0.132,1.234,0.286,2.451,0.47,3.643c0.939,0.419,1.871,0.856,2.795,1.309c0.07,0.035,0.141,0.068,0.211,0.103
				c0.931,0.459,1.854,0.934,2.765,1.43c0.044,0.024,0.088,0.05,0.132,0.074c0.799,0.437,1.587,0.893,2.367,1.361
				c0.201,0.121,0.402,0.242,0.602,0.364c0.828,0.509,1.648,1.029,2.451,1.576c1.983,1.35,4.159,2.853,5.947,4.591
				c-2.314-4.704-2.675-11.404-3.174-18.722c-0.141-2.073-0.201-4.199-0.179-6.374s0.125-4.398,0.31-6.666
				c0.277-3.402,0.737-6.904,1.378-10.494c0.214-1.196,0.448-2.402,0.702-3.618c2.161-10.338,5.677-20.798,10.451-31.091
				c4.177-9.007,9.075-17.366,14.588-24.901c0.788-1.076,1.588-2.136,2.4-3.178c3.82-4.902,7.792-9.272,11.87-13.068
				c2.447-2.277,4.932-4.348,7.446-6.202c5.665-4.178,11.736-8.269,16.664-9.631c0.001-0.001,0.001-0.002,0.002-0.004
				c-0.083-0.004-0.166-0.008-0.249-0.012c-0.361-0.018-0.725-0.035-1.096-0.053c-0.126-0.006-0.251-0.012-0.378-0.018
				c-0.261-0.013-0.527-0.025-0.792-0.038c-1.145-0.055-2.321-0.112-3.51-0.171c-0.085-0.004-0.169-0.008-0.254-0.013
				c-0.416-0.021-0.833-0.042-1.25-0.063c-0.114-0.006-0.227-0.012-0.341-0.018c-0.408-0.021-0.815-0.043-1.223-0.064
				c-0.101-0.005-0.201-0.011-0.302-0.016c-1.006-0.055-2.003-0.112-2.981-0.172c-0.093-0.005-0.184-0.011-0.277-0.017
				c-0.386-0.024-0.769-0.048-1.147-0.074c-0.129-0.008-0.257-0.017-0.385-0.025c-0.341-0.023-0.677-0.046-1.01-0.07
				c-0.135-0.01-0.27-0.02-0.404-0.029c-0.363-0.027-0.718-0.054-1.068-0.082c-0.081-0.006-0.165-0.013-0.245-0.019
				c-0.435-0.035-0.859-0.071-1.271-0.109c-0.055-0.005-0.107-0.01-0.161-0.015c-0.344-0.031-0.678-0.064-1.003-0.097
				c-0.113-0.011-0.221-0.023-0.332-0.035c-0.262-0.028-0.518-0.056-0.766-0.085c-0.116-0.014-0.231-0.027-0.344-0.041
				c-0.242-0.029-0.475-0.059-0.701-0.09c-0.094-0.013-0.191-0.025-0.281-0.038c-0.306-0.043-0.6-0.088-0.87-0.134
				C1152.143,214.82,1151.123,214.63,1150.119,214.428z"/>
			<g>
				<path style="opacity:0.5;fill:#FFFFFF;" d="M1074.066,157.979c-2.667,0.178-4.973-1.839-5.151-4.505
					c-1.675-25.026-23.397-44.023-48.422-42.349c-12.975,0.868-24.984,7.27-32.949,17.562c-1.636,2.114-4.675,2.501-6.789,0.866
					c-2.114-1.635-2.501-4.675-0.865-6.788c9.658-12.481,24.222-20.243,39.957-21.296c30.35-2.031,56.694,21.009,58.725,51.359
					C1078.75,155.494,1076.733,157.8,1074.066,157.979z"/>
				<path style="opacity:0.5;fill:#FFFFFF;" d="M1085.088,175.639c-1.867,2.59-5.48,3.176-8.07,1.309
					c-2.59-1.867-3.176-5.48-1.309-8.07c1.867-2.59,5.48-3.176,8.07-1.309C1086.369,169.436,1086.955,173.049,1085.088,175.639z"/>
			</g>
		</g>
		<g>
			<g>
				<path style="fill:#FAB4C6;" d="M676.498,86.283c-30.681,10.818-59.992,44.838-56.374,76.259
					c-21.328-23.355-74.249-19.603-102.55-3.558c-74.685,42.339-58.037,148.733,3.87,197.185
					c33.319,26.078,72.446,44.327,112.505,58.47c12.741,4.498,32.448,10.209,51.998,15.549c37.103,10.134,76.169-7.658,92.878-42.3
					c8.805-18.254,17.433-36.869,22.403-49.434c15.628-39.504,27.543-81,29.742-123.254
					C835.057,136.692,757.463,57.734,676.498,86.283z"/>
			</g>
			<g>
				<path style="opacity:0.5;fill:#FFFFFF;" d="M790.284,191.598c-3.952,0-7.155-3.203-7.155-7.155
					c0-37.086-30.172-67.258-67.258-67.258c-19.228,0-37.577,8.258-50.344,22.657c-2.623,2.957-7.144,3.228-10.101,0.607
					c-2.957-2.622-3.228-7.144-0.607-10.101c15.481-17.46,37.733-27.474,61.052-27.474c44.977,0,81.568,36.591,81.568,81.568
					C797.44,188.394,794.237,191.598,790.284,191.598z"/>
				<path style="opacity:0.5;fill:#FFFFFF;" d="M804.802,218.741c-3.01,3.637-8.399,4.145-12.036,1.135
					c-3.637-3.01-4.145-8.399-1.135-12.036c3.01-3.637,8.399-4.145,12.036-1.135C807.304,209.715,807.812,215.104,804.802,218.741z"
					/>
			</g>
			<path style="fill:#FFA6BD;" d="M468.112,252.017c1.624,38.979,21.489,79.23,53.331,104.152
				c33.32,26.077,72.446,44.327,112.505,58.469c12.741,4.498,32.448,10.209,51.998,15.549c37.103,10.135,76.169-7.657,92.879-42.3
				c8.805-18.254,17.433-36.87,22.403-49.434c0.436-1.101,0.867-2.205,1.297-3.31c-37.139,27.85-83.278,44.352-133.272,44.352
				C580.391,379.495,503.715,327.361,468.112,252.017z"/>
		</g>
		<g>
			<g>
				<path style="fill:#FAB4C6;" d="M961.271,417.781c-15.097-3.601-35.646,2.452-42.325,15.982
					c-2.507-14.879-24.69-27.066-40.184-27.957c-40.889-2.351-61.741,44.601-49.462,80.038c6.609,19.073,17.57,36.51,29.968,52.542
					c3.722,4.812,9.651,11.663,15.731,18.469c12.859,14.392,34.199,17.526,50.652,7.438c7.781-4.771,15.429-9.627,20.376-13.167
					c16.484-11.791,31.995-25.341,43.808-41.709C1011.784,479.007,1001.11,427.284,961.271,417.781z"/>
			</g>
			<g>
				<path style="opacity:0.5;fill:#FFFFFF;" d="M972.017,495.012c-1.173-1.343-1.035-3.381,0.308-4.554
					c12.599-11.005,13.896-30.209,2.891-42.808c-5.706-6.532-13.956-10.315-22.637-10.38c-1.783-0.014-3.217-1.469-3.203-3.252
					c0.013-1.783,1.469-3.217,3.252-3.203c10.526,0.078,20.531,4.666,27.45,12.588c13.346,15.28,11.774,38.569-3.506,51.916
					C975.229,496.492,973.19,496.355,972.017,495.012z"/>
				<path style="opacity:0.5;fill:#FFFFFF;" d="M967.104,507.999c-2.129,0.057-3.9-1.623-3.957-3.752
					c-0.057-2.129,1.623-3.901,3.752-3.957c2.129-0.057,3.901,1.623,3.957,3.752C970.912,506.17,969.233,507.942,967.104,507.999z"
					/>
			</g>
			<path style="fill:#FFA6BD;" d="M828.004,447.099c-3.235,12.593-2.992,26.371,1.296,38.745
				c6.609,19.073,17.57,36.51,29.969,52.542c3.721,4.812,9.65,11.663,15.731,18.469c12.859,14.392,34.199,17.525,50.652,7.438
				c4.874-2.988,9.695-6.01,13.834-8.721C882.854,547.243,837.833,503.228,828.004,447.099z"/>
		</g>
		<g>
			<g>
				<path style="fill:#FAB4C6;" d="M725.208,585.879c-8.444-3.356-20.858-1.576-25.865,5.702
					c-0.202-8.831-12.029-17.757-20.931-19.575c-23.492-4.799-39.52,20.65-35.385,42.213c2.226,11.605,7.111,22.63,12.946,32.96
					c2.072,3.668,5.693,9.248,9.183,14.456c5.335,7.962,15.57,11.025,24.395,7.287c5.777-2.447,11.87-5.134,15.616-7.069
					c10.542-5.446,20.667-11.992,28.887-20.482C749.327,625.597,747.49,594.733,725.208,585.879z"/>
			</g>
			<g>
				<path style="opacity:0.5;fill:#FFFFFF;" d="M728.084,630.46c-0.786-0.767-0.802-2.026-0.035-2.813
					c7.2-7.379,7.054-19.24-0.325-26.44c-3.826-3.733-9.08-5.652-14.416-5.266c-1.096,0.079-2.048-0.745-2.128-1.84
					c-0.079-1.096,0.745-2.048,1.84-2.128c6.47-0.469,12.841,1.859,17.481,6.386c8.949,8.732,9.126,23.116,0.394,32.065
					C730.13,631.211,728.871,631.227,728.084,630.46z"/>
				<path style="opacity:0.5;fill:#FFFFFF;" d="M725.704,638.679c-1.305,0.139-2.476-0.806-2.615-2.111s0.806-2.476,2.111-2.615
					s2.476,0.806,2.615,2.111C727.954,637.369,727.009,638.539,725.704,638.679z"/>
			</g>
			<path style="fill:#FFA6BD;" d="M645.859,590.927c-3.176,7.199-4.328,15.496-2.832,23.292c2.226,11.605,7.111,22.63,12.946,32.96
				c2.072,3.668,5.693,9.248,9.183,14.456c5.335,7.962,15.57,11.025,24.395,7.287c5.708-2.418,11.715-5.067,15.471-6.996
				c-10.598-1.364-21.03-5.237-30.379-11.81C654.789,636.155,644.696,613.5,645.859,590.927z"/>
		</g>
		<g>
			<g>
				<path style="fill:#FAB4C6;" d="M310.739,97.868c-7.844-4.585-20.386-4.689-26.428,1.754c1.126-8.761-9.227-19.361-17.756-22.495
					c-22.506-8.271-42.172,14.484-41.321,36.423c0.458,11.808,3.633,23.44,7.852,34.53c1.498,3.937,4.241,9.997,6.909,15.671
					c4.079,8.673,13.739,13.238,23.025,10.866c6.079-1.552,12.507-3.294,16.5-4.645c11.24-3.802,22.233-8.754,31.635-15.914
					C328.623,140.757,331.44,109.967,310.739,97.868z"/>
			</g>
			<g>
				<path style="opacity:0.5;fill:#FFFFFF;" d="M306.891,142.376c-0.662-0.876-0.488-2.124,0.388-2.786
					c8.226-6.215,9.862-17.963,3.647-26.189c-3.222-4.265-8.129-6.951-13.462-7.37c-1.095-0.086-1.913-1.043-1.827-2.139
					c0.086-1.095,1.044-1.913,2.139-1.827c6.467,0.508,12.417,3.766,16.325,8.938c7.537,9.976,5.553,24.224-4.423,31.761
					C308.801,143.426,307.553,143.252,306.891,142.376z"/>
				<path style="opacity:0.5;fill:#FFFFFF;" d="M303.303,150.144c-1.311-0.058-2.327-1.168-2.269-2.479
					c0.058-1.311,1.168-2.327,2.479-2.269c1.311,0.058,2.327,1.168,2.269,2.479C305.724,149.187,304.614,150.203,303.303,150.144z"
					/>
			</g>
			<path style="fill:#FFA6BD;" d="M231.532,90.948c-4.221,6.64-6.605,14.671-6.296,22.603c0.458,11.808,3.633,23.441,7.852,34.53
				c1.498,3.937,4.24,9.997,6.909,15.671c4.08,8.673,13.739,13.238,23.025,10.867c6.006-1.534,12.343-3.251,16.346-4.594
				c-10.273-2.939-20.006-8.334-28.262-16.236C233.571,137.004,226.993,113.09,231.532,90.948z"/>
		</g>
		<path style="fill:#EACDB0;" d="M1076.054,443.811c0,0-1.081-22.703,0-24.865c1.081-2.162,12.973-15.135,12.973-15.135L1102,412.46
			l-9.73,20.54h-11.351L1076.054,443.811z"/>
	</g>
	<polygon style="fill:#AEC4C4;" points="1285,375 1317,390 1367,504 1400,647 1379,652 1324,514 1267,404 	"/>
	<polygon style="fill:#EACDB0;" points="1396.74,647.776 1407,663 1400,681 1392,679 1381.7,651.357 	"/>
</g>
</svg>
